<svg xmlns="http://www.w3.org/2000/svg" viewBox="0 0 24 24" fill="none">
  <path d="M3 9c3-2.5 4.5-2.5 9 0s6 2.5 9 0" stroke="#0EA5E9" stroke-width="1.5" stroke-linecap="round"/>
  <path d="M3 12c3-2.5 4.5-2.5 9 0s6 2.5 9 0" stroke="#0EA5E9" stroke-width="1.5" stroke-linecap="round"/>
  <path d="M3 15c3-2.5 4.5-2.5 9 0s6 2.5 9 0" stroke="#0EA5E9" stroke-width="1.5" stroke-linecap="round"/>
  <path d="M3 18c3-2.5 4.5-2.5 9 0s6 2.5 9 0" stroke="#0EA5E9" stroke-width="1.5" stroke-linecap="round" opacity="0.4"/>
  <path d="M3 6c3-2.5 4.5-2.5 9 0s6 2.5 9 0" stroke="#0EA5E9" stroke-width="1.5" stroke-linecap="round" opacity="0.4"/>
</svg>
